<mxfile host="app.diagrams.net" modified="2024-05-09T15:12:52.744Z" agent="Mozilla/5.0 (Windows NT 10.0; Win64; x64) AppleWebKit/537.36 (KHTML, like Gecko) Chrome/124.0.0.0 Safari/537.36" etag="34mye4R_7pbueHx8fe0C" version="24.3.1" type="github">
  <diagram name="第 1 页" id="9cOVtWoqRpHsyyoPQM1w">
    <mxGraphModel dx="1050" dy="1691" grid="1" gridSize="10" guides="1" tooltips="1" connect="1" arrows="1" fold="1" page="1" pageScale="1" pageWidth="827" pageHeight="1169" math="0" shadow="0">
      <root>
        <mxCell id="0" />
        <mxCell id="1" parent="0" />
        <mxCell id="4WQlWzJM2xi80WpdYUxq-1" value="矛盾" style="rounded=0;whiteSpace=wrap;html=1;" parent="1" vertex="1">
          <mxGeometry x="90" y="190" width="120" height="60" as="geometry" />
        </mxCell>
        <mxCell id="4WQlWzJM2xi80WpdYUxq-2" value="质量互变：形式状态" style="text;html=1;align=center;verticalAlign=middle;resizable=0;points=[];autosize=1;strokeColor=none;fillColor=none;" parent="1" vertex="1">
          <mxGeometry x="365" y="270" width="130" height="30" as="geometry" />
        </mxCell>
        <mxCell id="4WQlWzJM2xi80WpdYUxq-3" value="否定之否定：方向道路" style="text;html=1;align=center;verticalAlign=middle;resizable=0;points=[];autosize=1;strokeColor=none;fillColor=none;" parent="1" vertex="1">
          <mxGeometry x="365" y="330" width="140" height="30" as="geometry" />
        </mxCell>
        <mxCell id="4WQlWzJM2xi80WpdYUxq-4" value="对立统一：源泉和动力" style="text;html=1;align=center;verticalAlign=middle;resizable=0;points=[];autosize=1;strokeColor=none;fillColor=none;" parent="1" vertex="1">
          <mxGeometry x="355" y="390" width="140" height="30" as="geometry" />
        </mxCell>
        <mxCell id="4WQlWzJM2xi80WpdYUxq-5" value="怎么做：区分主次矛盾&lt;div&gt;怎么看：矛盾的主要方面&lt;/div&gt;" style="text;html=1;align=center;verticalAlign=middle;resizable=0;points=[];autosize=1;strokeColor=none;fillColor=none;" parent="1" vertex="1">
          <mxGeometry x="60" y="110" width="160" height="40" as="geometry" />
        </mxCell>
        <mxCell id="4WQlWzJM2xi80WpdYUxq-6" value="联系" style="text;html=1;align=center;verticalAlign=middle;resizable=0;points=[];autosize=1;strokeColor=none;fillColor=none;" parent="1" vertex="1">
          <mxGeometry x="285" y="8" width="50" height="30" as="geometry" />
        </mxCell>
        <mxCell id="4WQlWzJM2xi80WpdYUxq-7" value="定义：外+内" style="text;html=1;align=center;verticalAlign=middle;resizable=0;points=[];autosize=1;strokeColor=none;fillColor=none;" parent="1" vertex="1">
          <mxGeometry x="355" y="-42" width="90" height="30" as="geometry" />
        </mxCell>
        <mxCell id="4WQlWzJM2xi80WpdYUxq-8" value="特点：客观；普遍性；条件性；多样性" style="text;html=1;align=center;verticalAlign=middle;resizable=0;points=[];autosize=1;strokeColor=none;fillColor=none;" parent="1" vertex="1">
          <mxGeometry x="355" width="230" height="30" as="geometry" />
        </mxCell>
        <mxCell id="4WQlWzJM2xi80WpdYUxq-9" value="整体与部分" style="text;html=1;align=center;verticalAlign=middle;resizable=0;points=[];autosize=1;strokeColor=none;fillColor=none;" parent="1" vertex="1">
          <mxGeometry x="355" y="50" width="80" height="30" as="geometry" />
        </mxCell>
        <mxCell id="4WQlWzJM2xi80WpdYUxq-10" value="整体起主导" style="text;html=1;align=center;verticalAlign=middle;resizable=0;points=[];autosize=1;strokeColor=none;fillColor=none;" parent="1" vertex="1">
          <mxGeometry x="450" y="30" width="80" height="30" as="geometry" />
        </mxCell>
        <mxCell id="4WQlWzJM2xi80WpdYUxq-11" value="关键部分起决定" style="text;html=1;align=center;verticalAlign=middle;resizable=0;points=[];autosize=1;strokeColor=none;fillColor=none;" parent="1" vertex="1">
          <mxGeometry x="435" y="70" width="110" height="30" as="geometry" />
        </mxCell>
        <mxCell id="4WQlWzJM2xi80WpdYUxq-12" value="部分有&lt;b&gt;机组合&lt;/b&gt;成整体" style="text;html=1;align=center;verticalAlign=middle;resizable=0;points=[];autosize=1;strokeColor=none;fillColor=none;" parent="1" vertex="1">
          <mxGeometry x="540" y="50" width="130" height="30" as="geometry" />
        </mxCell>
        <mxCell id="4WQlWzJM2xi80WpdYUxq-13" value="三大规律" style="text;html=1;align=center;verticalAlign=middle;resizable=0;points=[];autosize=1;strokeColor=none;fillColor=none;" parent="1" vertex="1">
          <mxGeometry x="265" y="318" width="70" height="30" as="geometry" />
        </mxCell>
        <mxCell id="4WQlWzJM2xi80WpdYUxq-14" value="发展与运动" style="text;html=1;align=center;verticalAlign=middle;resizable=0;points=[];autosize=1;strokeColor=none;fillColor=none;" parent="1" vertex="1">
          <mxGeometry x="270" y="150" width="80" height="30" as="geometry" />
        </mxCell>
        <mxCell id="4WQlWzJM2xi80WpdYUxq-15" value="新事物产生旧事物灭亡" style="text;html=1;align=center;verticalAlign=middle;resizable=0;points=[];autosize=1;strokeColor=none;fillColor=none;" parent="1" vertex="1">
          <mxGeometry x="380" y="160" width="140" height="30" as="geometry" />
        </mxCell>
        <mxCell id="DTqvQ2y9LpoU53bTNXRC-2" value="认识论" style="whiteSpace=wrap;html=1;" vertex="1" parent="1">
          <mxGeometry x="90" y="630" width="120" height="60" as="geometry" />
        </mxCell>
        <mxCell id="DTqvQ2y9LpoU53bTNXRC-3" value="三大核心" style="text;html=1;align=center;verticalAlign=middle;resizable=0;points=[];autosize=1;strokeColor=none;fillColor=none;" vertex="1" parent="1">
          <mxGeometry x="230" y="580" width="70" height="30" as="geometry" />
        </mxCell>
        <mxCell id="DTqvQ2y9LpoU53bTNXRC-4" value="两大规律" style="text;html=1;align=center;verticalAlign=middle;resizable=0;points=[];autosize=1;strokeColor=none;fillColor=none;" vertex="1" parent="1">
          <mxGeometry x="210" y="800" width="70" height="30" as="geometry" />
        </mxCell>
        <mxCell id="DTqvQ2y9LpoU53bTNXRC-5" value="实践" style="text;html=1;align=center;verticalAlign=middle;resizable=0;points=[];autosize=1;strokeColor=none;fillColor=none;" vertex="1" parent="1">
          <mxGeometry x="305" y="520" width="50" height="30" as="geometry" />
        </mxCell>
        <mxCell id="DTqvQ2y9LpoU53bTNXRC-6" value="认识" style="text;html=1;align=center;verticalAlign=middle;resizable=0;points=[];autosize=1;strokeColor=none;fillColor=none;" vertex="1" parent="1">
          <mxGeometry x="305" y="570" width="50" height="30" as="geometry" />
        </mxCell>
        <mxCell id="DTqvQ2y9LpoU53bTNXRC-7" value="真理" style="text;html=1;align=center;verticalAlign=middle;resizable=0;points=[];autosize=1;strokeColor=none;fillColor=none;" vertex="1" parent="1">
          <mxGeometry x="305" y="630" width="50" height="30" as="geometry" />
        </mxCell>
        <mxCell id="DTqvQ2y9LpoU53bTNXRC-10" value="含义：人有目的、能动的，改造和探索世界" style="text;html=1;align=center;verticalAlign=middle;resizable=0;points=[];autosize=1;strokeColor=none;fillColor=none;" vertex="1" parent="1">
          <mxGeometry x="360" y="490" width="250" height="30" as="geometry" />
        </mxCell>
        <mxCell id="DTqvQ2y9LpoU53bTNXRC-11" value="特征：客观；物质性；直接现实性；社会历史性" style="text;html=1;align=center;verticalAlign=middle;resizable=0;points=[];autosize=1;strokeColor=none;fillColor=none;" vertex="1" parent="1">
          <mxGeometry x="365" y="540" width="280" height="30" as="geometry" />
        </mxCell>
        <mxCell id="DTqvQ2y9LpoU53bTNXRC-12" value="主体对客体及其规律的正确反映" style="text;html=1;align=center;verticalAlign=middle;resizable=0;points=[];autosize=1;strokeColor=none;fillColor=none;" vertex="1" parent="1">
          <mxGeometry x="365" y="610" width="190" height="30" as="geometry" />
        </mxCell>
        <mxCell id="DTqvQ2y9LpoU53bTNXRC-13" value="特点：客观性；具体性：绝对客观" style="text;html=1;align=center;verticalAlign=middle;resizable=0;points=[];autosize=1;strokeColor=none;fillColor=none;" vertex="1" parent="1">
          <mxGeometry x="360" y="660" width="200" height="30" as="geometry" />
        </mxCell>
        <mxCell id="DTqvQ2y9LpoU53bTNXRC-14" value="实践vs认识：" style="text;html=1;align=center;verticalAlign=middle;resizable=0;points=[];autosize=1;strokeColor=none;fillColor=none;" vertex="1" parent="1">
          <mxGeometry x="270" y="760" width="100" height="30" as="geometry" />
        </mxCell>
        <mxCell id="DTqvQ2y9LpoU53bTNXRC-15" value="实践是认识的基础；来源；动力；唯一标准；目的和归宿" style="text;html=1;align=center;verticalAlign=middle;resizable=0;points=[];autosize=1;strokeColor=none;fillColor=none;" vertex="1" parent="1">
          <mxGeometry x="355" y="730" width="320" height="30" as="geometry" />
        </mxCell>
        <mxCell id="DTqvQ2y9LpoU53bTNXRC-16" value="认识反作用于实践" style="text;html=1;align=center;verticalAlign=middle;resizable=0;points=[];autosize=1;strokeColor=none;fillColor=none;" vertex="1" parent="1">
          <mxGeometry x="355" y="780" width="120" height="30" as="geometry" />
        </mxCell>
        <mxCell id="DTqvQ2y9LpoU53bTNXRC-17" value="发展" style="text;html=1;align=center;verticalAlign=middle;resizable=0;points=[];autosize=1;strokeColor=none;fillColor=none;" vertex="1" parent="1">
          <mxGeometry x="300" y="840" width="50" height="30" as="geometry" />
        </mxCell>
        <mxCell id="DTqvQ2y9LpoU53bTNXRC-18" value="感性-》理性：理性认识依赖感性认识，感性认识是其起点和基础" style="text;html=1;align=center;verticalAlign=middle;resizable=0;points=[];autosize=1;strokeColor=none;fillColor=none;" vertex="1" parent="1">
          <mxGeometry x="365" y="830" width="360" height="30" as="geometry" />
        </mxCell>
        <mxCell id="DTqvQ2y9LpoU53bTNXRC-19" value="理性-》实践" style="text;html=1;align=center;verticalAlign=middle;resizable=0;points=[];autosize=1;strokeColor=none;fillColor=none;" vertex="1" parent="1">
          <mxGeometry x="360" y="870" width="90" height="30" as="geometry" />
        </mxCell>
      </root>
    </mxGraphModel>
  </diagram>
</mxfile>
